<svg xmlns="http://www.w3.org/2000/svg" viewBox="0 0 192 192" width="192" height="192">
  <defs>
    <linearGradient id="bg" x1="0" y1="0" x2="1" y2="1">
      <stop offset="0%" stop-color="#0a0f1c"/>
      <stop offset="100%" stop-color="#1a2236"/>
    </linearGradient>
    <linearGradient id="accent" x1="0" y1="0" x2="1" y2="1">
      <stop offset="0%" stop-color="#8EBF42"/>
      <stop offset="100%" stop-color="#c2e87a"/>
    </linearGradient>
  </defs>
  <rect width="192" height="192" rx="40" fill="url(#bg)"/>
  <g transform="translate(40,42)" fill="url(#accent)">
    <path d="M16 6h80c8 0 14 6 14 14v62c0 6-3 11-8 13l6 14h-12l-4-10H20l-4 10H4l6-14c-5-2-8-7-8-13V20C2 12 8 6 16 6zm0 14v32h80V20H16zm6 44a6 6 0 1 0 0 12 6 6 0 0 0 0-12zm68 0a6 6 0 1 0 0 12 6 6 0 0 0 0-12z"/>
  </g>
  <g transform="translate(96,156)" text-anchor="middle" font-family="Inter, system-ui, sans-serif" font-weight="800" font-size="20" fill="#8EBF42">
    <text>ETA</text>
  </g>
</svg>
