<svg xmlns="http://www.w3.org/2000/svg" viewBox="0 0 512 512" width="512" height="512">
  <defs>
    <linearGradient id="bg" x1="0" y1="0" x2="1" y2="1">
      <stop offset="0%" stop-color="#0a0f1c"/>
      <stop offset="100%" stop-color="#1a2236"/>
    </linearGradient>
    <linearGradient id="accent" x1="0" y1="0" x2="1" y2="1">
      <stop offset="0%" stop-color="#8EBF42"/>
      <stop offset="100%" stop-color="#c2e87a"/>
    </linearGradient>
  </defs>
  <rect width="512" height="512" rx="108" fill="url(#bg)"/>
  <g transform="translate(108,116)" fill="url(#accent)">
    <path d="M44 16h208c22 0 38 16 38 38v166c0 17-9 31-22 36l16 38h-32l-11-26H56l-11 26H13l16-38c-13-5-22-19-22-36V54C7 32 23 16 44 16zm0 38v86h208V54H44zm16 116a16 16 0 1 0 0 32 16 16 0 0 0 0-32zm176 0a16 16 0 1 0 0 32 16 16 0 0 0 0-32z"/>
  </g>
  <g transform="translate(256,420)" text-anchor="middle" font-family="Inter, system-ui, sans-serif" font-weight="800" font-size="56" fill="#8EBF42">
    <text>ETA</text>
  </g>
</svg>
