<svg xmlns="http://www.w3.org/2000/svg" style="display:none" aria-hidden="true"><symbol id="i-menu" viewBox="0 0 256 256" fill="currentColor"><path d="M228,128a12,12,0,0,1-12,12H40a12,12,0,0,1,0-24H216A12,12,0,0,1,228,128ZM40,76H216a12,12,0,0,0,0-24H40a12,12,0,0,0,0,24ZM216,180H40a12,12,0,0,0,0,24H216a12,12,0,0,0,0-24Z"/></symbol><symbol id="i-sun" viewBox="0 0 256 256" fill="currentColor"><path d="M116,36V20a12,12,0,0,1,24,0V36a12,12,0,0,1-24,0Zm80,92a68,68,0,1,1-68-68A68.07,68.07,0,0,1,196,128Zm-24,0a44,44,0,1,0-44,44A44.05,44.05,0,0,0,172,128ZM51.51,68.49a12,12,0,1,0,17-17l-12-12a12,12,0,0,0-17,17Zm0,119-12,12a12,12,0,0,0,17,17l12-12a12,12,0,1,0-17-17ZM196,72a12,12,0,0,0,8.49-3.51l12-12a12,12,0,0,0-17-17l-12,12A12,12,0,0,0,196,72Zm8.49,115.51a12,12,0,0,0-17,17l12,12a12,12,0,0,0,17-17ZM48,128a12,12,0,0,0-12-12H20a12,12,0,0,0,0,24H36A12,12,0,0,0,48,128Zm80,80a12,12,0,0,0-12,12v16a12,12,0,0,0,24,0V220A12,12,0,0,0,128,208Zm108-92H220a12,12,0,0,0,0,24h16a12,12,0,0,0,0-24Z"/></symbol><symbol id="i-moon" viewBox="0 0 256 256" fill="currentColor"><path d="M236.37,139.4a12,12,0,0,0-12-3A84.07,84.07,0,0,1,119.6,31.59a12,12,0,0,0-15-15A108.86,108.86,0,0,0,49.69,55.07,108,108,0,0,0,136,228a107.09,107.09,0,0,0,64.93-21.69,108.86,108.86,0,0,0,38.44-54.94A12,12,0,0,0,236.37,139.4Zm-49.88,47.74A84,84,0,0,1,68.86,69.51,84.93,84.93,0,0,1,92.27,48.29Q92,52.13,92,56A108.12,108.12,0,0,0,200,164q3.87,0,7.71-.27A84.79,84.79,0,0,1,186.49,187.14Z"/></symbol><symbol id="i-install" viewBox="0 0 256 256" fill="currentColor"><path d="M228,144v64a12,12,0,0,1-12,12H40a12,12,0,0,1-12-12V144a12,12,0,0,1,24,0v52H204V144a12,12,0,0,1,24,0Zm-108.49,8.49a12,12,0,0,0,17,0l40-40a12,12,0,0,0-17-17L140,115V32a12,12,0,0,0-24,0v83L96.49,95.51a12,12,0,0,0-17,17Z"/></symbol><symbol id="i-search" viewBox="0 0 256 256" fill="currentColor"><path d="M232.49,215.51,185,168a92.12,92.12,0,1,0-17,17l47.53,47.54a12,12,0,0,0,17-17ZM44,112a68,68,0,1,1,68,68A68.07,68.07,0,0,1,44,112Z"/></symbol><symbol id="i-back" viewBox="0 0 256 256" fill="currentColor"><path d="M168.49,199.51a12,12,0,0,1-17,17l-80-80a12,12,0,0,1,0-17l80-80a12,12,0,0,1,17,17L97,128Z"/></symbol><symbol id="i-share" viewBox="0 0 256 256" fill="currentColor"><path d="M176,156a43.78,43.78,0,0,0-29.09,11L106.1,140.8a44.07,44.07,0,0,0,0-25.6L146.91,89a43.83,43.83,0,1,0-13-20.17L93.09,95a44,44,0,1,0,0,65.94L133.9,187.2A44,44,0,1,0,176,156Zm0-120a20,20,0,1,1-20,20A20,20,0,0,1,176,36ZM64,148a20,20,0,1,1,20-20A20,20,0,0,1,64,148Zm112,72a20,20,0,1,1,20-20A20,20,0,0,1,176,220Z"/></symbol><symbol id="i-fav" viewBox="0 0 256 256" fill="currentColor"><path d="M243,96a20.33,20.33,0,0,0-17.74-14l-56.59-4.57L146.83,24.62a20.36,20.36,0,0,0-37.66,0L87.35,77.44,30.76,82A20.45,20.45,0,0,0,19.1,117.88l43.18,37.24-13.2,55.7A20.37,20.37,0,0,0,79.57,233L128,203.19,176.43,233a20.39,20.39,0,0,0,30.49-22.15l-13.2-55.7,43.18-37.24A20.43,20.43,0,0,0,243,96ZM172.53,141.7a12,12,0,0,0-3.84,11.86L181.58,208l-47.29-29.08a12,12,0,0,0-12.58,0L74.42,208l12.89-54.4a12,12,0,0,0-3.84-11.86L41.2,105.24l55.4-4.47a12,12,0,0,0,10.13-7.38L128,41.89l21.27,51.5a12,12,0,0,0,10.13,7.38l55.4,4.47Z"/></symbol><symbol id="i-fav-fill" viewBox="0 0 256 256" fill="currentColor"><path d="M234.29,114.85l-45,38.83L203,211.75a16.4,16.4,0,0,1-24.5,17.82L128,198.49,77.47,229.57A16.4,16.4,0,0,1,53,211.75l13.76-58.07-45-38.83A16.46,16.46,0,0,1,31.08,86l59-4.76,22.76-55.08a16.36,16.36,0,0,1,30.27,0l22.75,55.08,59,4.76a16.46,16.46,0,0,1,9.37,28.86Z"/></symbol><symbol id="i-settings" viewBox="0 0 256 256" fill="currentColor"><path d="M128,76a52,52,0,1,0,52,52A52.06,52.06,0,0,0,128,76Zm0,80a28,28,0,1,1,28-28A28,28,0,0,1,128,156Zm113.86-49.57A12,12,0,0,0,236,98.34L208.21,82.49l-.11-31.31a12,12,0,0,0-4.25-9.12,116,116,0,0,0-38-21.41,12,12,0,0,0-9.68.89L128,37.27,99.83,21.53a12,12,0,0,0-9.7-.9,116.06,116.06,0,0,0-38,21.47,12,12,0,0,0-4.24,9.1l-.14,31.34L20,98.35a12,12,0,0,0-5.85,8.11,110.7,110.7,0,0,0,0,43.11A12,12,0,0,0,20,157.66l27.82,15.85.11,31.31a12,12,0,0,0,4.25,9.12,116,116,0,0,0,38,21.41,12,12,0,0,0,9.68-.89L128,218.73l28.14,15.74a12,12,0,0,0,9.7.9,116.06,116.06,0,0,0,38-21.47,12,12,0,0,0,4.24-9.1l.14-31.34,27.81-15.81a12,12,0,0,0,5.85-8.11A110.7,110.7,0,0,0,241.86,106.43Zm-22.63,33.18-26.88,15.28a11.94,11.94,0,0,0-4.55,4.59c-.54,1-1.11,1.93-1.7,2.88a12,12,0,0,0-1.83,6.31L184.13,199a91.83,91.83,0,0,1-21.07,11.87l-27.15-15.19a12,12,0,0,0-5.86-1.53h-.29c-1.14,0-2.3,0-3.44,0a12.08,12.08,0,0,0-6.14,1.51L93,210.82A92.27,92.27,0,0,1,71.88,199l-.11-30.24a12,12,0,0,0-1.83-6.32c-.58-.94-1.16-1.91-1.7-2.88A11.92,11.92,0,0,0,63.7,155L36.8,139.63a86.53,86.53,0,0,1,0-23.24l26.88-15.28a12,12,0,0,0,4.55-4.58c.54-1,1.11-1.94,1.7-2.89a12,12,0,0,0,1.83-6.31L71.87,57A91.83,91.83,0,0,1,92.94,45.17l27.15,15.19a11.92,11.92,0,0,0,6.15,1.52c1.14,0,2.3,0,3.44,0a12.08,12.08,0,0,0,6.14-1.51L163,45.18A92.27,92.27,0,0,1,184.12,57l.11,30.24a12,12,0,0,0,1.83,6.32c.58.94,1.16,1.91,1.7,2.88A11.92,11.92,0,0,0,192.3,101l26.9,15.33A86.53,86.53,0,0,1,219.23,139.61Z"/></symbol><symbol id="i-close" viewBox="0 0 256 256" fill="currentColor"><path d="M208.49,191.51a12,12,0,0,1-17,17L128,145,64.49,208.49a12,12,0,0,1-17-17L111,128,47.51,64.49a12,12,0,0,1,17-17L128,111l63.51-63.52a12,12,0,0,1,17,17L145,128Z"/></symbol><symbol id="i-warning" viewBox="0 0 256 256" fill="currentColor"><path d="M240.26,186.1,152.81,34.23h0a28.74,28.74,0,0,0-49.62,0L15.74,186.1a27.45,27.45,0,0,0,0,27.71A28.31,28.31,0,0,0,40.55,228h174.9a28.31,28.31,0,0,0,24.79-14.19A27.45,27.45,0,0,0,240.26,186.1Zm-20.8,15.7a4.46,4.46,0,0,1-4,2.2H40.55a4.46,4.46,0,0,1-4-2.2,3.56,3.56,0,0,1,0-3.73L124,46.2a4.77,4.77,0,0,1,8,0l87.44,151.87A3.56,3.56,0,0,1,219.46,201.8ZM116,136V104a12,12,0,0,1,24,0v32a12,12,0,0,1-24,0Zm28,40a16,16,0,1,1-16-16A16,16,0,0,1,144,176Z"/></symbol><symbol id="i-nearby" viewBox="0 0 256 256" fill="currentColor"><path d="M184,80c0,56-56,88-56,88S72,136,72,80a56,56,0,0,1,112,0Z" opacity="0.2"/><path d="M112,80a16,16,0,1,1,16,16A16,16,0,0,1,112,80ZM64,80a64,64,0,0,1,128,0c0,59.95-57.58,93.54-60,94.95a8,8,0,0,1-7.94,0C121.58,173.54,64,140,64,80Zm16,0c0,42.2,35.84,70.21,48,78.5,12.15-8.28,48-36.3,48-78.5a48,48,0,0,0-96,0Zm122.77,67.63a8,8,0,0,0-5.54,15C213.74,168.74,224,176.92,224,184c0,13.36-36.52,32-96,32s-96-18.64-96-32c0-7.08,10.26-15.26,26.77-21.36a8,8,0,0,0-5.54-15C29.22,156.49,16,169.41,16,184c0,31.18,57.71,48,112,48s112-16.82,112-48C240,169.41,226.78,156.49,202.77,147.63Z"/></symbol><symbol id="i-live" viewBox="0 0 256 256" fill="currentColor"><path d="M160,128a32,32,0,1,1-32-32A32,32,0,0,1,160,128Z" opacity="0.2"/><path d="M128,88a40,40,0,1,0,40,40A40,40,0,0,0,128,88Zm0,64a24,24,0,1,1,24-24A24,24,0,0,1,128,152Zm73.71,7.14a80,80,0,0,1-14.08,22.2,8,8,0,0,1-11.92-10.67,63.95,63.95,0,0,0,0-85.33,8,8,0,1,1,11.92-10.67,80.08,80.08,0,0,1,14.08,84.47ZM69,103.09a64,64,0,0,0,11.26,67.58,8,8,0,0,1-11.92,10.67,79.93,79.93,0,0,1,0-106.67A8,8,0,1,1,80.29,85.34,63.77,63.77,0,0,0,69,103.09ZM248,128a119.58,119.58,0,0,1-34.29,84,8,8,0,1,1-11.42-11.2,103.9,103.9,0,0,0,0-145.56A8,8,0,1,1,213.71,44,119.58,119.58,0,0,1,248,128ZM53.71,200.78A8,8,0,1,1,42.29,212a119.87,119.87,0,0,1,0-168,8,8,0,1,1,11.42,11.2,103.9,103.9,0,0,0,0,145.56Z"/></symbol><symbol id="i-bus" viewBox="0 0 256 256" fill="currentColor"><path d="M48,184H88v24a8,8,0,0,1-8,8H56a8,8,0,0,1-8-8Zm120,24a8,8,0,0,0,8,8h24a8,8,0,0,0,8-8V184H168ZM48,72v40H208V72Z" opacity="0.2"/><path d="M184,32H72A32,32,0,0,0,40,64V208a16,16,0,0,0,16,16H80a16,16,0,0,0,16-16V192h64v16a16,16,0,0,0,16,16h24a16,16,0,0,0,16-16V64A32,32,0,0,0,184,32ZM56,176V120H200v56Zm0-96H200v24H56ZM72,48H184a16,16,0,0,1,16,16H56A16,16,0,0,1,72,48Zm8,160H56V192H80Zm96,0V192h24v16Zm-72-60a12,12,0,1,1-12-12A12,12,0,0,1,104,148Zm72,0a12,12,0,1,1-12-12A12,12,0,0,1,176,148Zm72-68v24a8,8,0,0,1-16,0V80a8,8,0,0,1,16,0ZM24,80v24a8,8,0,0,1-16,0V80a8,8,0,0,1,16,0Z"/></symbol><symbol id="i-metro" viewBox="0 0 256 256" fill="currentColor"><path d="M152,32H104A64,64,0,0,0,40,96V208H216V96A64,64,0,0,0,152,32Zm24,136a16,16,0,0,1-16,16H96a16,16,0,0,1-16-16V96A16,16,0,0,1,96,80h64a16,16,0,0,1,16,16Z" opacity="0.2"/><path d="M224,96V208a8,8,0,0,1-16,0V96a56.06,56.06,0,0,0-56-56H104A56.06,56.06,0,0,0,48,96V208a8,8,0,0,1-16,0V96a72.08,72.08,0,0,1,72-72h48A72.08,72.08,0,0,1,224,96Zm-40,0v72a24,24,0,0,1-19.29,23.53l2.45,4.89a8,8,0,0,1-14.32,7.16L147.06,192H108.94l-5.78,11.58a8,8,0,0,1-14.32-7.16l2.45-4.89A24,24,0,0,1,72,168V96A24,24,0,0,1,96,72h64A24,24,0,0,1,184,96ZM88,96v48h80V96a8,8,0,0,0-8-8H96A8,8,0,0,0,88,96Zm32,64v16h16V160ZM96,176h8V160H88v8A8,8,0,0,0,96,176Zm72-8v-8H152v16h8A8,8,0,0,0,168,168Z"/></symbol><symbol id="i-cercanias" viewBox="0 0 256 256" fill="currentColor"><path d="M216,120l-22.39,82.1a8,8,0,0,1-7.72,5.9H70.11a8,8,0,0,1-7.72-5.9L40,120l88,16Z" opacity="0.2"/><path d="M223.72,117.9,201.33,35.79A16,16,0,0,0,185.89,24H70.11A16,16,0,0,0,54.67,35.79L32.28,117.9a8.08,8.08,0,0,0,0,4.2l22.39,82.11A16,16,0,0,0,70.11,216H80L65.6,235.2a8,8,0,1,0,12.8,9.6L100,216h56l21.6,28.8a8,8,0,1,0,12.8-9.6L176,216h9.89a16,16,0,0,0,15.44-11.79l22.39-82.11A8.08,8.08,0,0,0,223.72,117.9ZM70.11,40H185.89L206,113.69l-78,14.18L50,113.69Zm-19,90.14L120,142.68V200H70.11ZM185.89,200H136V142.68l68.94-12.54ZM88,88a8,8,0,0,1,8-8h64a8,8,0,0,1,0,16H96A8,8,0,0,1,88,88Z"/></symbol><symbol id="i-tram" viewBox="0 0 256 256" fill="currentColor"><path d="M208,80v48H48V80A24,24,0,0,1,72,56H184A24,24,0,0,1,208,80Z" opacity="0.2"/><path d="M184,48H136V24h32a8,8,0,0,0,0-16H88a8,8,0,0,0,0,16h32V48H72A32,32,0,0,0,40,80V184a32,32,0,0,0,32,32h8L65.6,235.2a8,8,0,1,0,12.8,9.6L100,216h56l21.6,28.8a8,8,0,1,0,12.8-9.6L176,216h8a32,32,0,0,0,32-32V80A32,32,0,0,0,184,48ZM72,64H184a16,16,0,0,1,16,16v40H56V80A16,16,0,0,1,72,64ZM184,200H72a16,16,0,0,1-16-16V136H200v48A16,16,0,0,1,184,200ZM96,172a12,12,0,1,1-12-12A12,12,0,0,1,96,172Zm88,0a12,12,0,1,1-12-12A12,12,0,0,1,184,172Z"/></symbol></svg>
